<?xml version="1.0" encoding="utf-8"?>
<!-- Generator: Adobe Illustrator 16.0.4, SVG Export Plug-In . SVG Version: 6.00 Build 0)  -->
<!DOCTYPE svg PUBLIC "-//W3C//DTD SVG 1.1//EN" "http://www.w3.org/Graphics/SVG/1.1/DTD/svg11.dtd">
<svg version="1.1" id="Layer_1" xmlns="http://www.w3.org/2000/svg" xmlns:xlink="http://www.w3.org/1999/xlink" x="0px" y="0px"
	 width="26px" height="20px" viewBox="0 0 26 20" enable-background="new 0 0 26 20" xml:space="preserve">
<g>
	<path fill="#FFFFFF" d="M24.015,6.935l-2.91-5.28c-0.131-0.265-0.436-0.441-0.788-0.523c-0.009-0.002-0.015-0.007-0.023-0.009
		c-0.019-0.004-0.036-0.001-0.055-0.005c-0.108-0.019-0.212-0.031-0.323-0.03c-0.11-0.001-0.216,0.011-0.321,0.03
		c-0.02,0.003-0.038,0-0.055,0.005c-0.011,0.002-0.018,0.007-0.023,0.009c-0.355,0.082-0.659,0.259-0.788,0.523l-2.135,11.434
		L14.2,6.471c-0.131-0.264-0.436-0.443-0.789-0.523c-0.008-0.002-0.014-0.007-0.021-0.009c-0.019-0.004-0.035-0.001-0.054-0.004
		c-0.106-0.02-0.212-0.033-0.323-0.031c-0.114-0.002-0.219,0.011-0.327,0.031c-0.017,0.003-0.036,0-0.053,0.004
		c-0.009,0.002-0.013,0.007-0.021,0.01c-0.354,0.081-0.658,0.258-0.789,0.522l-2.351,5.928l-2.444-1.91
		c-0.02-0.015-0.047-0.021-0.069-0.034c-0.014-0.01-0.02-0.023-0.034-0.033c-0.039-0.023-0.087-0.031-0.128-0.052
		c-0.078-0.038-0.153-0.074-0.24-0.099c-0.069-0.019-0.139-0.027-0.21-0.037c-0.081-0.012-0.16-0.023-0.241-0.021
		c-0.082-0.002-0.16,0.01-0.239,0.021c-0.072,0.01-0.142,0.019-0.211,0.037c-0.086,0.023-0.163,0.061-0.241,0.099
		c-0.042,0.021-0.088,0.028-0.126,0.052c-0.016,0.01-0.022,0.024-0.035,0.033c-0.022,0.014-0.048,0.02-0.068,0.034l-2.955,3.081
		c-0.455,0.355-0.411,0.898,0.098,1.213c0.508,0.318,1.287,0.287,1.739-0.067l2.17-2.26l2.893,2.26
		c0.453,0.354,1.232,0.386,1.74,0.067c0.053-0.031,0.078-0.074,0.121-0.11c0.003-0.002,0.004-0.005,0.009-0.009
		c0.081-0.071,0.149-0.146,0.193-0.229c0.014-0.021,0.038-0.035,0.05-0.058l1.717-4.328l2.807,7.771
		c0.131,0.264,0.436,0.439,0.788,0.521c0.007,0.002,0.015,0.007,0.023,0.011c0.019,0.004,0.04,0.001,0.06,0.006
		c0.105,0.019,0.209,0.03,0.318,0.028c0.11,0.002,0.214-0.01,0.319-0.028c0.02-0.005,0.04-0.002,0.06-0.006
		c0.008-0.004,0.015-0.009,0.025-0.011c0.351-0.081,0.654-0.258,0.783-0.521l2.338-12.507l1.202,2.183
		c0.222,0.449,0.924,0.688,1.57,0.533C23.896,7.874,24.238,7.385,24.015,6.935z"/>
</g>
</svg>
