<?xml version="1.0" encoding="utf-8"?>
<!-- Generator: Adobe Illustrator 16.0.4, SVG Export Plug-In . SVG Version: 6.00 Build 0)  -->
<!DOCTYPE svg PUBLIC "-//W3C//DTD SVG 1.1//EN" "http://www.w3.org/Graphics/SVG/1.1/DTD/svg11.dtd">
<svg version="1.1" id="Layer_1" xmlns="http://www.w3.org/2000/svg" xmlns:xlink="http://www.w3.org/1999/xlink" x="0px" y="0px"
	 width="26px" height="20px" viewBox="0 0 26 20" enable-background="new 0 0 26 20" xml:space="preserve">
<path fill="#FFFFFF" d="M7.794,6.821c0,0.564-0.458,1.023-1.024,1.023H4.383c-0.564,0-1.024-0.459-1.024-1.023l0,0
	c0-0.565,0.459-1.024,1.024-1.024H6.77C7.336,5.797,7.794,6.256,7.794,6.821L7.794,6.821z"/>
<path fill="#FFFFFF" d="M10.412,10.396c0,0.563-0.458,1.022-1.024,1.022H7.001c-0.564,0-1.023-0.459-1.023-1.022l0,0
	c0-0.565,0.459-1.023,1.023-1.023h2.387C9.954,9.373,10.412,9.831,10.412,10.396L10.412,10.396z"/>
<path fill="#FFFFFF" d="M12.866,13.971c0,0.564-0.458,1.022-1.023,1.022H9.456c-0.565,0-1.024-0.458-1.024-1.022l0,0
	c0-0.564,0.459-1.023,1.024-1.023h2.387C12.408,12.947,12.866,13.406,12.866,13.971L12.866,13.971z"/>
<path fill="#FFFFFF" d="M20.035,1.344H5.168c-0.009,0-0.015-0.005-0.024-0.005H2.757c-0.565,0-1.024,0.459-1.024,1.024
	c0,0.563,0.458,1.022,1.024,1.022h2.319h0.067H6.85l5.236,5.304c1.363,1.382,3.594,1.396,4.974,0.033l4.373-4.314
	c0.045,0.145,0.077,0.294,0.077,0.454v10.278c0,0.814-0.661,1.477-1.476,1.477h-6.184c-0.015-0.001-0.028-0.01-0.047-0.01h-2.386
	c-0.565,0-1.024,0.459-1.024,1.023s0.459,1.023,1.024,1.023h0.59v0.006h8.026c1.94,0,3.519-1.578,3.519-3.52V4.862
	C23.554,2.922,21.976,1.344,20.035,1.344z M15.627,7.27c-0.578,0.572-1.516,0.565-2.088-0.014l-3.82-3.87h9.842L15.627,7.27z"/>
</svg>
