<?xml version="1.0" encoding="utf-8"?>
<!-- Generator: Adobe Illustrator 16.0.4, SVG Export Plug-In . SVG Version: 6.00 Build 0)  -->
<!DOCTYPE svg PUBLIC "-//W3C//DTD SVG 1.1//EN" "http://www.w3.org/Graphics/SVG/1.1/DTD/svg11.dtd">
<svg version="1.1" id="Layer_1" xmlns="http://www.w3.org/2000/svg" xmlns:xlink="http://www.w3.org/1999/xlink" x="0px" y="0px"
	 width="75px" height="75px" viewBox="0 0 75 75" enable-background="new 0 0 75 75" xml:space="preserve">
<g>
	<path d="M32.021,48.678V16.659h16.034c7.199,0,11.137,4.848,11.137,10.657c0,5.76-3.938,10.609-11.137,10.609h-7.777v10.753H32.021
		z M50.789,27.316c0-2.208-1.775-3.457-3.983-3.457h-6.528v6.865h6.528C49.014,30.724,50.789,29.476,50.789,27.316z"/>
	<linearGradient id="SVGID_1_" gradientUnits="userSpaceOnUse" x1="15.019" y1="13.7866" x2="62.3413" y2="61.1089">
		<stop  offset="0" style="stop-color:#000000;stop-opacity:0.5"/>
		<stop  offset="0" style="stop-color:#969696;stop-opacity:0.7"/>
		<stop  offset="0.8818" style="stop-color:#58595B;stop-opacity:0.7"/>
	</linearGradient>
	<circle fill="url(#SVGID_1_)" cx="38.68" cy="37.447" r="33.462"/>
</g>
<g>
	<path d="M25.423,53.93V22.715h16.42c7.375,0,11.406,4.727,11.406,10.39c0,5.616-4.031,10.343-11.406,10.343H33.88V53.93H25.423z
		 M44.646,33.104c0-2.153-1.819-3.37-4.08-3.37H33.88v6.692h6.687C42.827,36.427,44.646,35.21,44.646,33.104z"/>
</g>
<g>
	<path d="M19.521,59.011V26.992h16.034c7.2,0,11.137,4.848,11.137,10.657c0,5.76-3.938,10.609-11.137,10.609h-7.777v10.753H19.521z
		 M38.289,37.649c0-2.208-1.775-3.457-3.983-3.457h-6.529v6.864h6.529C36.514,41.057,38.289,39.809,38.289,37.649z"/>
</g>
<g>
	<path d="M19.521,61.01V28.197h16.033c7.2,0,11.137,4.969,11.137,10.921c0,5.903-3.937,10.872-11.137,10.872h-7.776v11.02H19.521z
		 M38.29,39.118c0-2.263-1.776-3.542-3.984-3.542h-6.528v7.035h6.528C36.514,42.611,38.29,41.332,38.29,39.118z"/>
</g>
<line fill="none" stroke="#000000" stroke-width="7" stroke-miterlimit="10" x1="25.473" y1="58.16" x2="53.125" y2="34.125"/>
<g>
	<path d="M32.021,49.678V17.659h16.034c7.199,0,11.137,4.848,11.137,10.657c0,5.76-3.938,10.609-11.137,10.609h-7.777v10.753H32.021
		z M50.789,28.316c0-2.208-1.775-3.457-3.983-3.457h-6.528v6.865h6.528C49.014,31.724,50.789,30.476,50.789,28.316z"/>
</g>
<line fill="none" stroke="#000000" stroke-width="4" stroke-miterlimit="10" x1="20.765" y1="28.784" x2="33.333" y2="18.167"/>
<rect x="30.087" y="20.909" width="3.246" height="2.566"/>
<g>
	<path fill="#FFFFFF" d="M32.056,50.077V16.613h16.228c7.287,0,11.271,5.067,11.271,11.138c0,6.021-3.984,11.088-11.271,11.088
		h-7.871v11.238H32.056z M51.052,27.751c0-2.308-1.798-3.612-4.032-3.612h-6.607v7.175h6.607
		C49.254,31.313,51.052,30.009,51.052,27.751z"/>
</g>
</svg>
