<?xml version="1.0" encoding="utf-8"?>
<!-- Generator: Adobe Illustrator 16.0.4, SVG Export Plug-In . SVG Version: 6.00 Build 0)  -->
<!DOCTYPE svg PUBLIC "-//W3C//DTD SVG 1.1//EN" "http://www.w3.org/Graphics/SVG/1.1/DTD/svg11.dtd">
<svg version="1.1" id="Layer_1" xmlns="http://www.w3.org/2000/svg" xmlns:xlink="http://www.w3.org/1999/xlink" x="0px" y="0px"
	 width="17px" height="17px" viewBox="0 0 17 17" enable-background="new 0 0 17 17" xml:space="preserve">
<g id="XMLID_13_">
	<g>
		<g id="XMLID_10_">
			<g>
				<path fill="#8E8E8E" d="M14.477,16.462l-3.808-3.808c-1.044,0.683-2.29,1.083-3.637,1.083c-3.67,0-6.638-2.975-6.638-6.645
					c0-3.663,2.967-6.637,6.638-6.637c3.663,0,6.638,2.975,6.638,6.637c0,1.281-0.361,2.475-0.985,3.486l3.835,3.834
					c0.203,0.197,0.032,0.689-0.375,1.096l-0.57,0.573C15.166,16.488,14.674,16.659,14.477,16.462z M11.464,7.093
					c0-2.449-1.983-4.432-4.432-4.432S2.594,4.644,2.594,7.093c0,2.449,1.989,4.438,4.438,4.438S11.464,9.542,11.464,7.093z"/>
			</g>
		</g>
	</g>
</g>
</svg>
